Normalized EMG Linear Envelopes
nRows=165
nColumns=4

endheader
time	 med_gas_r	  soleus_r	 tib_ant_r	
1.93738	  0.051554	  0.090707	  0.029874	
1.99987	  0.052340	  0.089643	  0.029684	
2.06237	  0.052124	  0.088338	  0.029471	
2.12486	  0.051044	  0.087533	  0.029310	
2.18736	  0.050719	  0.088064	  0.029725	
2.24986	  0.050701	  0.090702	  0.030378	
2.31235	  0.050283	  0.095290	  0.030663	
2.37485	  0.050164	  0.099134	  0.030671	
2.43734	  0.050733	  0.100182	  0.030990	
2.49984	  0.050997	  0.099672	  0.031473	
2.56234	  0.050776	  0.098113	  0.031755	
2.62483	  0.051205	  0.094840	  0.031452	
2.68733	  0.052512	  0.092588	  0.030985	
2.74982	  0.053518	  0.092049	  0.030547	
2.81232	  0.053926	  0.090354	  0.030063	
2.87482	  0.054008	  0.088797	  0.030004	
2.93731	  0.054076	  0.088451	  0.030683	
2.99981	  0.053646	  0.088526	  0.031776	
3.0623	  0.052239	  0.088038	  0.032432	
3.1248	  0.050922	  0.087354	  0.032384	
3.1873	  0.050282	  0.089083	  0.032120	
3.24979	  0.051182	  0.093729	  0.032351	
3.31229	  0.052614	  0.097909	  0.032617	
3.37478	  0.053400	  0.097898	  0.032576	
3.43728	  0.053531	  0.094601	  0.032781	
3.49978	  0.052602	  0.090820	  0.033263	
3.56227	  0.051228	  0.087856	  0.033346	
3.62477	  0.050239	  0.086660	  0.032857	
3.68726	  0.049736	  0.086953	  0.032044	
3.74976	  0.050119	  0.088165	  0.031446	
3.81226	  0.051523	  0.090730	  0.031522	
3.87475	  0.053162	  0.094075	  0.031966	
3.93725	  0.054178	  0.095901	  0.032000	
3.99974	  0.053829	  0.095300	  0.030947	
4.06224	  0.052615	  0.095122	  0.029080	
4.12474	  0.051478	  0.096710	  0.027960	
4.18723	  0.050601	  0.097387	  0.027911	
4.24973	  0.050333	  0.095791	  0.028398	
4.31222	  0.050493	  0.096201	  0.029130	
4.37472	  0.050585	  0.099317	  0.029624	
4.43722	  0.050215	  0.101168	  0.029917	
4.49971	  0.048925	  0.099148	  0.029974	
4.56221	  0.045408	  0.093170	  0.029509	
4.6247	  0.040382	  0.086636	  0.028977	
4.6872	  0.037142	  0.083355	  0.028892	
4.7497	  0.040794	  0.088402	  0.028924	
4.81219	  0.062417	  0.109952	  0.029558	
4.87469	  0.117227	  0.154578	  0.031856	
4.93718	  0.213382	  0.221278	  0.037291	
4.99968	  0.337081	  0.299541	  0.046809	
5.06218	  0.455225	  0.368453	  0.060011	
5.12467	  0.519173	  0.413293	  0.074920	
5.18717	  0.536444	  0.463358	  0.087829	
5.24966	  0.552671	  0.527769	  0.097730	
5.31216	  0.584558	  0.576699	  0.107135	
5.37466	  0.618250	  0.587407	  0.113521	
5.43715	  0.637626	  0.573516	  0.115520	
5.49965	  0.613958	  0.545466	  0.115347	
5.56214	  0.565124	  0.495417	  0.113185	
5.62464	  0.529728	  0.438313	  0.110599	
5.68714	  0.505911	  0.405470	  0.107910	
5.74963	  0.495695	  0.402974	  0.105218	
5.81213	  0.499219	  0.412620	  0.103116	
5.87462	  0.521385	  0.439239	  0.103452	
5.93712	  0.560580	  0.488076	  0.104261	
5.99962	  0.581863	  0.549443	  0.103918	
6.06211	  0.595872	  0.584526	  0.103949	
6.12461	  0.594466	  0.606366	  0.105845	
6.1871	  0.589003	  0.616598	  0.107685	
6.2496	  0.593952	  0.606638	  0.107348	
6.3121	  0.612304	  0.581617	  0.105294	
6.37459	  0.621520	  0.558313	  0.106232	
6.43709	  0.616543	  0.549048	  0.110250	
6.49958	  0.596495	  0.544906	  0.114130	
6.56208	  0.592359	  0.541259	  0.115502	
6.62458	  0.603858	  0.538138	  0.115023	
6.68707	  0.625894	  0.536660	  0.113823	
6.74957	  0.646775	  0.552584	  0.113293	
6.81206	  0.644992	  0.577637	  0.113487	
6.87456	  0.639436	  0.600180	  0.114030	
6.93706	  0.639480	  0.601432	  0.114894	
6.99955	  0.634661	  0.584718	  0.114626	
7.06205	  0.622534	  0.550846	  0.112533	
7.12454	  0.602665	  0.525578	  0.110504	
7.18704	  0.559721	  0.533221	  0.107839	
7.24954	  0.529414	  0.568314	  0.104190	
7.31203	  0.524516	  0.600548	  0.099196	
7.37453	  0.536124	  0.591863	  0.094512	
7.43702	  0.568085	  0.555653	  0.091416	
7.49952	  0.597222	  0.525097	  0.091848	
7.56202	  0.617127	  0.512765	  0.095299	
7.62451	  0.636479	  0.522368	  0.099950	
7.68701	  0.651494	  0.538266	  0.103524	
7.7495	  0.658025	  0.564518	  0.103518	
7.812	  0.647269	  0.595056	  0.100568	
7.8745	  0.637897	  0.626638	  0.098943	
7.93699	  0.631703	  0.645363	  0.100256	
7.99949	  0.642072	  0.651786	  0.103267	
8.06198	  0.677560	  0.653316	  0.105359	
8.12448	  0.723332	  0.660953	  0.104759	
8.18698	  0.767175	  0.661035	  0.102710	
8.24947	  0.769141	  0.647926	  0.101116	
8.31197	  0.729720	  0.629806	  0.101266	
8.37446	  0.676813	  0.623798	  0.101844	
8.43696	  0.630838	  0.649472	  0.102338	
8.49946	  0.601188	  0.683734	  0.103039	
8.56195	  0.584084	  0.687743	  0.103436	
8.62445	  0.583109	  0.657659	  0.104116	
8.68694	  0.592736	  0.625982	  0.103713	
8.74944	  0.600721	  0.612085	  0.102386	
8.81194	  0.612132	  0.615099	  0.099752	
8.87443	  0.629099	  0.621784	  0.097239	
8.93693	  0.648882	  0.628618	  0.096306	
8.99942	  0.657937	  0.645757	  0.094312	
9.06192	  0.654870	  0.666132	  0.093092	
9.12442	  0.656916	  0.678407	  0.093813	
9.18691	  0.668498	  0.695747	  0.094880	
9.24941	  0.672420	  0.716114	  0.095957	
9.3119	  0.661350	  0.736876	  0.098569	
9.3744	  0.648107	  0.737757	  0.101603	
9.4369	  0.633567	  0.720081	  0.100997	
9.49939	  0.613633	  0.688593	  0.095189	
9.56189	  0.584227	  0.646026	  0.088076	
9.62438	  0.558892	  0.602378	  0.083440	
9.68688	  0.547237	  0.555419	  0.081848	
9.74938	  0.563408	  0.516669	  0.080080	
9.81187	  0.583865	  0.495621	  0.078357	
9.87437	  0.571968	  0.502860	  0.078725	
9.93686	  0.541250	  0.530460	  0.081056	
9.99936	  0.502967	  0.553616	  0.083836	
10.0619	  0.469844	  0.550019	  0.084682	
10.1244	  0.464548	  0.532841	  0.084334	
10.1868	  0.473425	  0.511691	  0.082952	
10.2493	  0.485628	  0.491754	  0.083239	
10.3118	  0.484432	  0.474633	  0.084651	
10.3743	  0.472077	  0.475326	  0.083853	
10.4368	  0.457542	  0.484626	  0.081216	
10.4993	  0.446974	  0.499200	  0.079879	
10.5618	  0.442555	  0.507818	  0.080777	
10.6243	  0.440882	  0.492055	  0.083031	
10.6868	  0.448518	  0.473635	  0.085461	
10.7493	  0.465508	  0.467359	  0.087509	
10.8118	  0.486896	  0.472748	  0.089657	
10.8743	  0.507208	  0.483365	  0.090671	
10.9368	  0.515651	  0.489948	  0.087732	
10.9993	  0.501178	  0.478615	  0.080547	
11.0618	  0.453436	  0.444271	  0.071356	
11.1243	  0.396235	  0.380776	  0.063781	
11.1868	  0.347056	  0.303999	  0.059876	
11.2493	  0.315187	  0.244617	  0.061102	
11.3118	  0.298939	  0.203344	  0.065666	
11.3743	  0.287712	  0.168964	  0.070010	
11.4368	  0.279849	  0.145664	  0.072715	
11.4993	  0.269295	  0.133783	  0.073743	
11.5618	  0.250411	  0.125466	  0.074210	
11.6243	  0.235993	  0.118853	  0.073829	
11.6868	  0.229710	  0.114294	  0.073901	
11.7492	  0.232071	  0.112693	  0.076226	
11.8117	  0.232874	  0.112421	  0.078255	
11.8742	  0.227922	  0.110157	  0.075225	
11.9367	  0.225110	  0.106968	  0.069868	
11.9992	  0.225452	  0.103113	  0.063982	
12.0617	  0.216097	  0.097216	  0.057136	
12.1242	  0.201612	  0.093319	  0.052944	
12.1867	  0.193283	  0.094291	  0.052769	
